<?xml version="1.0" encoding="UTF-8" standalone="no"?>
<!-- Generator: Adobe Illustrator 17.1.0, SVG Export Plug-In . SVG Version: 6.00 Build 0)  -->

<svg
   xmlns:dc="http://purl.org/dc/elements/1.1/"
   xmlns:cc="http://creativecommons.org/ns#"
   xmlns:rdf="http://www.w3.org/1999/02/22-rdf-syntax-ns#"
   xmlns:svg="http://www.w3.org/2000/svg"
   xmlns="http://www.w3.org/2000/svg"
   xmlns:sodipodi="http://sodipodi.sourceforge.net/DTD/sodipodi-0.dtd"
   xmlns:inkscape="http://www.inkscape.org/namespaces/inkscape"
   version="1.1"
   id="Layer_1"
   x="0px"
   y="0px"
   viewBox="0 0 62.028 62.027"
   enable-background="new 0 0 195.734 58.852"
   xml:space="preserve"
   inkscape:version="0.48.4 r9939"
   width="100%"
   height="100%"
   sodipodi:docname="toggl.svg"><metadata
     id="metadata3243"><rdf:RDF><cc:Work
         rdf:about=""><dc:format>image/svg+xml</dc:format><dc:type
           rdf:resource="http://purl.org/dc/dcmitype/StillImage" /></cc:Work></rdf:RDF></metadata><defs
     id="defs3241" /><sodipodi:namedview
     pagecolor="#ffffff"
     bordercolor="#666666"
     borderopacity="1"
     objecttolerance="10"
     gridtolerance="10"
     guidetolerance="10"
     inkscape:pageopacity="0"
     inkscape:pageshadow="2"
     inkscape:window-width="1366"
     inkscape:window-height="719"
     id="namedview3239"
     showgrid="false"
     fit-margin-top="2"
     fit-margin-left="2"
     fit-margin-right="2"
     fit-margin-bottom="2"
     inkscape:zoom="6.2329488"
     inkscape:cx="41.40716"
     inkscape:cy="30.601001"
     inkscape:window-x="0"
     inkscape:window-y="0"
     inkscape:window-maximized="1"
     inkscape:current-layer="Layer_1" /><circle
     cx="29.469999"
     cy="28.502001"
     r="22.329"
     id="circle3223"
     sodipodi:cx="29.469999"
     sodipodi:cy="28.502001"
     sodipodi:rx="22.329"
     sodipodi:ry="22.329"
     style="fill:#ffffff"
     transform="translate(2,1.9999997)" /><path
     d="M 31.014,1.9999997 C 14.989,1.9999997 2,14.987 2,31.014 2,47.04 14.989,60.027 31.014,60.027 47.039,60.027 60.028,47.04 60.028,31.014 60.028,14.987 47.039,1.9999997 31.014,1.9999997 z M 28.978,13.294 h 4.074 V 33.503 H 28.978 V 13.294 z m 2.036,32.6 c -7.829,0 -14.179,-6.352 -14.179,-14.181 0,-6.535 4.419,-12.033 10.434,-13.68 v 4.12 c -3.819,1.498 -6.521,5.212 -6.521,9.56 0,5.669 4.598,10.268 10.267,10.268 5.669,0 10.268,-4.599 10.268,-10.268 0,-4.348 -2.704,-8.061 -6.518,-9.56 v -4.12 c 6.01,1.647 10.431,7.144 10.431,13.68 -0.002,7.829 -6.351,14.181 -14.182,14.181 z"
     id="path3237"
     inkscape:connector-curvature="0"
     style="fill:#e11b22" /></svg>